<svg width="25" height="25" viewBox="0 0 25 25" fill="none" xmlns="http://www.w3.org/2000/svg">
<path d="M12.5 25C9.18479 25 6.00537 23.683 3.66117 21.3388C1.31696 18.9946 0 15.8152 0 12.5C0 9.18479 1.31696 6.00537 3.66117 3.66117C6.00537 1.31696 9.18479 0 12.5 0C15.8152 0 18.9946 1.31696 21.3388 3.66117C23.683 6.00537 25 9.18479 25 12.5C25 15.8152 23.683 18.9946 21.3388 21.3388C18.9946 23.683 15.8152 25 12.5 25ZM16.1406 7.03125C14.2344 7.03125 13.2812 7.8125 12.5109 8.80625C11.7391 7.8125 10.7859 7.03125 8.87813 7.03125C7.27188 7.03125 5.48906 8.25625 5.48906 10.9375C5.48906 13.2797 7.82187 16.3016 10.5609 17.9953C11.3734 18.4969 11.9516 18.7438 12.5109 18.7516C13.0687 18.7438 13.6484 18.4969 14.4594 17.9953C17.1984 16.3016 19.5312 13.2812 19.5312 10.9375C19.5312 8.25625 17.75 7.03125 16.1406 7.03125Z" fill="white"/>
</svg>
