<svg width="25" height="25" viewBox="0 0 25 25" fill="none" xmlns="http://www.w3.org/2000/svg">
<path d="M12.5 0C5.59676 0 0 5.59676 0 12.5C0 19.4032 5.59676 25 12.5 25C19.4032 25 25 19.4032 25 12.5C25 5.59676 19.4032 0 12.5 0ZM14.622 17.5895C14.715 17.6779 14.7894 17.7841 14.8408 17.9017C14.8922 18.0193 14.9195 18.146 14.9212 18.2743C14.9228 18.4027 14.8988 18.53 14.8504 18.6489C14.802 18.7678 14.7304 18.8758 14.6396 18.9665C14.5489 19.0573 14.4409 19.129 14.322 19.1773C14.2031 19.2257 14.0757 19.2497 13.9474 19.2481C13.8191 19.2465 13.6924 19.2191 13.5748 19.1678C13.4572 19.1164 13.351 19.042 13.2626 18.9489L7.49339 13.1797C7.3132 12.9994 7.21198 12.7549 7.21198 12.5C7.21198 12.2451 7.3132 12.0006 7.49339 11.8203L13.2626 6.05108C13.4444 5.87837 13.6865 5.78351 13.9372 5.78672C14.1879 5.78993 14.4275 5.89096 14.6048 6.06827C14.7821 6.24558 14.8832 6.48513 14.8864 6.73587C14.8896 6.9866 14.7947 7.22867 14.622 7.41046L9.53305 12.5L14.622 17.5895Z" fill="white"/>
</svg>
