<svg width="25" height="25" viewBox="0 0 25 25" fill="none" xmlns="http://www.w3.org/2000/svg">
<path d="M14.7727 9.21875V6.5625C15.3977 6.19792 16.0371 5.92448 16.6909 5.74219C17.3447 5.5599 18.0311 5.46875 18.75 5.46875C19.2424 5.46875 19.7254 5.52084 20.1989 5.625C20.6723 5.72917 21.1364 5.85938 21.5909 6.01563V8.51563C21.1364 8.28125 20.6769 8.10521 20.2125 7.9875C19.7481 7.8698 19.2606 7.81146 18.75 7.8125C18.0303 7.8125 17.339 7.93646 16.6761 8.18438C16.0133 8.43229 15.3788 8.77709 14.7727 9.21875ZM14.7727 17.8125V15.1563C15.3977 14.7917 16.0371 14.5182 16.6909 14.3359C17.3447 14.1536 18.0311 14.0625 18.75 14.0625C19.2424 14.0625 19.7254 14.1146 20.1989 14.2188C20.6723 14.3229 21.1364 14.4531 21.5909 14.6094V17.1094C21.1364 16.875 20.6769 16.699 20.2125 16.5813C19.7481 16.4635 19.2606 16.4052 18.75 16.4063C18.0303 16.4063 17.339 16.5234 16.6761 16.7578C16.0133 16.9922 15.3788 17.3438 14.7727 17.8125ZM14.7727 13.5156V10.8594C15.3977 10.4948 16.0371 10.2214 16.6909 10.0391C17.3447 9.85677 18.0311 9.76563 18.75 9.76563C19.2424 9.76563 19.7254 9.81771 20.1989 9.92188C20.6723 10.026 21.1364 10.1563 21.5909 10.3125V12.8125C21.1364 12.5781 20.6769 12.4021 20.2125 12.2844C19.7481 12.1667 19.2606 12.1083 18.75 12.1094C18.0303 12.1094 17.339 12.2333 16.6761 12.4813C16.0133 12.7292 15.3788 13.074 14.7727 13.5156ZM13.6364 20.3906C14.4697 19.8438 15.3076 19.4333 16.15 19.1594C16.9924 18.8854 17.8591 18.749 18.75 18.75C19.4318 18.75 20.0996 18.8281 20.7534 18.9844C21.4072 19.1406 22.0651 19.375 22.7273 19.6875V4.21875C22.1023 3.85417 21.4534 3.58073 20.7807 3.39844C20.1079 3.21615 19.4311 3.125 18.75 3.125C17.8598 3.125 16.9792 3.28125 16.108 3.59375C15.2367 3.90625 14.4129 4.375 13.6364 5V20.3906ZM12.5 25C11.5909 24.0104 10.6061 23.2422 9.54545 22.6953C8.48485 22.1484 7.38636 21.875 6.25 21.875C5.45454 21.875 4.6731 22.0182 3.90568 22.3047C3.13826 22.5911 2.40454 22.9948 1.70454 23.5156C1.30682 23.8021 0.923485 23.7891 0.554545 23.4766C0.185606 23.1641 0.000757576 22.7083 0 22.1094V3.28125C0 2.9948 0.0522727 2.72136 0.156818 2.46094C0.261364 2.20053 0.417424 2.00521 0.625 1.875C1.51515 1.27605 2.42917 0.813546 3.36704 0.487505C4.30492 0.161463 5.26591 -0.00103669 6.25 4.97612e-06C7.34848 4.97612e-06 8.42348 0.195317 9.475 0.585942C10.5265 0.976567 11.5348 1.5625 12.5 2.34375C13.4659 1.5625 14.4746 0.976567 15.5261 0.585942C16.5776 0.195317 17.6523 4.97612e-06 18.75 4.97612e-06C19.7348 4.97612e-06 20.6962 0.163026 21.6341 0.489068C22.572 0.815109 23.4856 1.27709 24.375 1.875C24.5833 2.00521 24.7398 2.20053 24.8443 2.46094C24.9489 2.72136 25.0007 2.9948 25 3.28125V22.1094C25 22.7083 24.8155 23.1641 24.4466 23.4766C24.0776 23.7891 23.6939 23.8021 23.2954 23.5156C22.5947 22.9948 21.861 22.5911 21.0943 22.3047C20.3276 22.0182 19.5462 21.875 18.75 21.875C17.6136 21.875 16.5151 22.1484 15.4545 22.6953C14.3939 23.2422 13.4091 24.0104 12.5 25Z" fill="#FFCDD2"/>
</svg>
