<svg width="56" height="56" viewBox="0 0 56 56" fill="none" xmlns="http://www.w3.org/2000/svg">
<path d="M48.2222 8.4L44.4142 1.5484C44.156 1.08337 43.7591 0.69222 43.2679 0.418747C42.7766 0.145273 42.2105 0.000277616 41.6329 0H14.3671C13.7895 0.000277616 13.2234 0.145273 12.7321 0.418747C12.2409 0.69222 11.844 1.08337 11.5858 1.5484L7.77778 8.4H0V14H56V8.4H48.2222ZM11.6169 53.5976C11.8378 54.9752 13.1507 56 14.7 56H41.3031C42.0518 56.0001 42.7753 55.7572 43.3411 55.3159C43.9068 54.8746 44.2768 54.2646 44.3831 53.5976L49.7778 19.6H6.22222L11.6169 53.5976ZM40.4444 28L38.2231 42H17.7769L15.5556 28H40.4444Z" fill="#FFFFFF"/>
</svg>
