<svg width="25" height="25" viewBox="0 0 25 25" fill="none" xmlns="http://www.w3.org/2000/svg">
<path d="M22.2222 0C22.9589 0 23.6655 0.292658 24.1864 0.813592C24.7073 1.33453 25 2.04107 25 2.77778V22.2222C25 22.9589 24.7073 23.6655 24.1864 24.1864C23.6655 24.7073 22.9589 25 22.2222 25H2.77778C2.04107 25 1.33453 24.7073 0.813592 24.1864C0.292658 23.6655 0 22.9589 0 22.2222V2.77778C0 2.04107 0.292658 1.33453 0.813592 0.813592C1.33453 0.292658 2.04107 0 2.77778 0H22.2222ZM19.0278 8.81944C19.3333 8.52778 19.3333 8.04167 19.0278 7.75L17.25 5.97222C17.181 5.89987 17.098 5.84227 17.0061 5.80291C16.9142 5.76356 16.8153 5.74326 16.7153 5.74326C16.6153 5.74326 16.5163 5.76356 16.4244 5.80291C16.3325 5.84227 16.2496 5.89987 16.1806 5.97222L14.7917 7.36111L17.6389 10.2083L19.0278 8.81944ZM5.55556 16.5833V19.4444H8.41667L16.8333 11.0278L13.9722 8.16667L5.55556 16.5833Z" fill="#D84315"/>
</svg>
