<svg width="25" height="25" viewBox="0 0 25 25" fill="none" xmlns="http://www.w3.org/2000/svg">
<path fill-rule="evenodd" clip-rule="evenodd" d="M14.0348 0.562349C13.596 0.19788 13.0559 0 12.4999 0C11.9439 0 11.4038 0.19788 10.9649 0.562349L0.48512 9.26339C-0.454861 10.0468 0.0626284 11.6548 1.25385 11.6548H2.61883L3.64381 22.5965C3.70549 23.2551 3.99418 23.8658 4.45383 24.3099C4.91348 24.754 5.51131 25 6.13126 25H18.8685C19.4884 25 20.0863 24.754 20.5459 24.3099C21.0056 23.8658 21.2943 23.2551 21.3559 22.5965L22.3809 11.6548H23.7459C24.9359 11.6548 25.4559 10.0468 24.5146 9.26473L14.0348 0.562349ZM12.4999 18.3274C13.4944 18.3274 14.4482 17.9056 15.1515 17.1548C15.8547 16.404 16.2498 15.3857 16.2498 14.3239C16.2498 13.2621 15.8547 12.2438 15.1515 11.4929C14.4482 10.7421 13.4944 10.3203 12.4999 10.3203C11.5053 10.3203 10.5515 10.7421 9.84828 11.4929C9.14503 12.2438 8.74995 13.2621 8.74995 14.3239C8.74995 15.3857 9.14503 16.404 9.84828 17.1548C10.5515 17.9056 11.5053 18.3274 12.4999 18.3274Z" fill="white"/>
</svg>
