<svg width="30" height="30" viewBox="0 0 30 30" fill="none" xmlns="http://www.w3.org/2000/svg">
<path d="M26.6667 26.6667V3.33333H3.33333V26.6667H26.6667ZM26.6667 0C27.5507 0 28.3986 0.351189 29.0237 0.976311C29.6488 1.60143 30 2.44928 30 3.33333V26.6667C30 27.5507 29.6488 28.3986 29.0237 29.0237C28.3986 29.6488 27.5507 30 26.6667 30H3.33333C2.44928 30 1.60143 29.6488 0.976311 29.0237C0.351189 28.3986 0 27.5507 0 26.6667V3.33333C0 2.44928 0.351189 1.60143 0.976311 0.976311C1.60143 0.351189 2.44928 0 3.33333 0H26.6667ZM13.3333 6.66667H16.6667V13.3333H23.3333V16.6667H16.6667V23.3333H13.3333V16.6667H6.66667V13.3333H13.3333V6.66667Z" fill="#D84315"/>
</svg>
