<svg width="25" height="25" viewBox="0 0 25 25" fill="none" xmlns="http://www.w3.org/2000/svg">
<path d="M24.8718 24.5001C24.7874 24.6521 24.6659 24.7783 24.5197 24.8661C24.3735 24.9539 24.2076 25 24.0388 25H0.960605C0.791894 24.9998 0.626198 24.9535 0.480155 24.8657C0.334112 24.7778 0.212863 24.6516 0.128582 24.4996C0.0443018 24.3477 -4.32815e-05 24.1753 3.16986e-08 23.9999C4.33449e-05 23.8245 0.0444734 23.6521 0.128829 23.5002C1.95946 20.2094 4.78053 17.8497 8.07277 16.7311C6.44428 15.7231 5.17904 14.1871 4.47136 12.359C3.76368 10.5309 3.65268 8.51174 4.15542 6.6117C4.65816 4.71165 5.74683 3.03573 7.25425 1.84131C8.76167 0.646882 10.6045 0 12.4997 0C14.3949 0 16.2377 0.646882 17.7451 1.84131C19.2526 3.03573 20.3412 4.71165 20.844 6.6117C21.3467 8.51174 21.2357 10.5309 20.528 12.359C19.8204 14.1871 18.5551 15.7231 16.9266 16.7311C20.2189 17.8497 23.0399 20.2094 24.8706 23.5002C24.9552 23.6521 24.9998 23.8245 25 24C25.0002 24.1755 24.956 24.348 24.8718 24.5001Z" fill="#FFCDD2"/>
</svg>
