<svg width="36" height="38" viewBox="0 0 36 38" fill="none" xmlns="http://www.w3.org/2000/svg">
<path d="M13.1604 16.8044L14.2862 16.3472L13.159 16.8053L13.1604 16.8044ZM25.1439 28.1602L26.2848 28.189L25.1425 28.161L25.1439 28.1602ZM19.4461 3.26799L19.3214 4.31433L19.4454 3.26686L19.4461 3.26799ZM17.8497 6.78492L21.7407 6.50532L21.9894 4.41152L18.0983 4.69112L17.8497 6.78492ZM18.5966 30.6821L17.3945 30.7691L17.1458 32.8629L18.3479 32.7759L18.5966 30.6821ZM23.0858 23.431L23.4551 24.8796L25.7396 24.0646L25.3702 22.616L23.0858 23.431ZM13.312 25.5408L13.914 24.0231L11.725 23.6629L11.1251 25.181L13.312 25.5408ZM15.579 10.4028L18.882 6.23441L17.0639 5.24131L13.7608 9.40968L15.579 10.4028ZM20.8477 6.13608L23.5335 9.87461L25.5647 8.51978L22.881 4.78158L20.8477 6.13608ZM19.1387 5.61573L19.2344 4.39189L16.9036 4.63421L16.8072 5.86L19.1387 5.61573ZM19.3201 4.31205L20.7313 4.21214L20.9799 2.11834L19.5694 2.21939L19.3214 4.31433L19.3201 4.31205ZM20.8007 4.27373L20.6983 5.5804L23.0305 5.33726L23.1329 4.03059L20.8007 4.27373ZM23.532 9.87543L23.6675 10.0643L25.7193 8.73552L25.5647 8.51978L23.532 9.87543ZM26.0611 16.1934C26.1177 16.0696 26.1527 15.9964 26.1833 15.9255L24.0274 15.4856L23.9215 15.7198L26.0611 16.1934ZM23.6668 10.0632C24.7265 11.605 24.85 13.6129 24.0274 15.4856L26.1833 15.9255C27.2877 13.409 27.1077 10.7553 25.7193 8.73552L23.6675 10.0643L23.6668 10.0632ZM14.2862 16.3472L14.2149 16.1258L11.9518 17.0105C11.9718 17.0779 11.9932 17.1475 12.0318 17.2633L14.2862 16.3472ZM13.7608 9.40968C13.6735 9.5193 13.6201 9.58658 13.5709 9.65141L15.415 10.6113L15.579 10.4028L13.7608 9.40968ZM14.2163 16.125C13.6722 14.3281 14.1264 12.2901 15.415 10.6113L13.5709 9.65141C11.8231 11.9277 11.2357 14.6481 11.9518 17.0105L14.2163 16.125ZM13.9133 24.0219L14.0152 23.7613L11.8171 23.4246L11.725 23.6629L13.9133 24.0219ZM12.0298 17.263C12.0542 17.337 12.0782 17.4111 12.1017 17.4855L14.3624 16.5901C14.3437 16.525 14.3221 16.4616 14.2841 16.3469L12.0312 17.2622L12.0298 17.263ZM14.0137 23.7621C14.94 21.3216 15.0614 18.821 14.3617 16.5889L12.1017 17.4855C12.682 19.3339 12.5833 21.4031 11.8171 23.4246L14.0137 23.7621ZM25.3667 22.6165L25.3108 22.3892L23.0201 23.1836L23.0843 23.4318L25.3681 22.6156L25.3667 22.6165ZM23.9194 15.7195L23.8025 15.9767L25.9525 16.4261L26.0591 16.1931L23.9215 15.7198L23.9194 15.7195ZM25.3108 22.3892C24.8482 20.5017 25.072 18.4222 25.9525 16.4261L23.8025 15.9767C22.7366 18.3884 22.465 20.9025 23.0222 23.1839L25.3108 22.3892ZM17.3931 30.7699C16.2515 30.8508 15.4573 30.9071 14.8478 30.9114C14.2445 30.9168 13.9334 30.8672 13.7258 30.7913L12.5223 32.761C13.0856 32.967 13.7211 33.0174 14.4353 33.0118C15.144 33.0063 16.0369 32.9416 17.1437 32.8626L17.3924 30.7688L17.3931 30.7699ZM11.1223 25.1795C10.7297 26.1726 10.4111 26.9712 10.2069 27.6188C9.99905 28.27 9.87203 28.8654 9.9191 29.4362L12.2487 28.9016C12.2306 28.6875 12.2707 28.3851 12.4469 27.8326C12.6226 27.2758 12.9059 26.5629 13.3099 25.5404L11.1223 25.1795ZM13.7258 30.7913C13.3049 30.635 12.9512 30.382 12.6943 30.0533C12.4374 29.7246 12.2846 29.3298 12.2487 28.9016L9.91769 29.437C9.98054 30.1908 10.2497 30.8859 10.7028 31.464C11.1558 32.0421 11.7802 32.4876 12.5223 32.761L13.7258 30.7913ZM18.3458 32.7756C19.4533 32.6977 20.3448 32.6338 21.0626 32.5366C21.7825 32.4396 22.4429 32.2951 23.0589 31.9987L22.2755 30.1851C22.0692 30.2844 21.7563 30.3786 21.1444 30.4602C20.531 30.5427 19.7375 30.6001 18.5945 30.6818L18.3458 32.7756ZM23.453 24.8793C23.7015 25.8544 23.874 26.538 23.9671 27.0776C24.0575 27.6158 24.0507 27.9172 23.9995 28.1319L26.2827 28.1887C26.4213 27.6003 26.3856 27.0199 26.2786 26.3942C26.1721 25.7727 25.9778 25.0122 25.7375 24.0643L23.453 24.8793ZM23.0589 31.9987C23.868 31.6069 24.589 31.0511 25.1533 30.3841C25.7176 29.7172 26.1064 28.9614 26.2827 28.1887L23.9981 28.1327C23.9061 28.5477 23.6995 28.9542 23.3982 29.3134C23.0968 29.6726 22.7108 29.9725 22.2769 30.1843L23.061 31.999L23.0589 31.9987ZM20.7313 4.21214L20.9897 4.19343C21.0592 4.18976 21.1022 4.18922 21.1285 4.18918C21.1826 4.1883 21.1096 4.19555 21.011 4.15532L22.2653 2.20491C22.0504 2.12366 21.8121 2.08401 21.5632 2.08815C21.3816 2.08675 21.169 2.10329 20.9779 2.11802L20.7313 4.21214ZM23.1302 4.02913C23.1439 3.85728 23.1589 3.668 23.1572 3.50512C23.1558 3.32986 23.1339 3.10272 23.0204 2.87684L20.8586 4.02175C20.8143 3.93198 20.8205 3.8677 20.8218 3.91554L20.8164 4.04003L20.8007 4.27373L23.1302 4.02913ZM21.011 4.15532C20.9433 4.12846 20.8891 4.08234 20.8586 4.02175L23.0204 2.87684C22.8679 2.57392 22.6041 2.33922 22.2653 2.20491L21.011 4.15532ZM19.2316 4.39043L19.2534 4.14111C19.259 4.07259 19.2652 4.03109 19.2688 4.00472C19.2782 3.94922 19.276 4.01724 19.2096 4.12391L17.2202 3.37235C17.0537 3.63846 16.991 3.88865 16.9594 4.07533C16.9297 4.24884 16.9157 4.44966 16.9015 4.63389L19.2316 4.39043ZM19.5674 2.21906C19.3631 2.2338 19.138 2.24841 18.9437 2.27713C18.6777 2.31085 18.4122 2.39241 18.1631 2.51684L19.0204 4.29534C18.9042 4.35488 18.8271 4.3584 18.8884 4.35035C18.9176 4.34559 18.9636 4.34033 19.0393 4.33454C19.1158 4.32679 19.2033 4.3218 19.3187 4.31287L19.5674 2.21906ZM19.2096 4.12391C19.165 4.1945 19.099 4.25539 19.0204 4.29534L18.1631 2.51684C17.7716 2.71869 17.4407 3.01886 17.2202 3.37235L19.2096 4.12391Z" fill="white"/>
<path d="M13.4163 17.4793L14.9899 15.4689C15.4906 14.8287 16.1615 14.2987 16.9232 13.9415C17.6849 13.5843 18.5053 13.415 19.2875 13.4536C19.9706 13.4872 20.6845 13.3623 21.3642 13.0902C22.044 12.8181 22.6678 12.4076 23.1788 11.896L25.0927 9.97908" stroke="white" stroke-width="3.125" stroke-linecap="round"/>
</svg>
