<svg width="35" height="33" viewBox="0 0 35 33" fill="none" xmlns="http://www.w3.org/2000/svg">
<path d="M33.5417 23.375C33.5417 27.9262 29.6188 31.625 24.7917 31.625V29.5625C28.4375 29.5625 31.3542 26.8125 31.3542 23.375H33.5417ZM1.45834 9.625C1.45834 5.07375 5.38126 1.375 10.2083 1.375V3.4375C6.56251 3.4375 3.64584 6.1875 3.64584 9.625H1.45834ZM11.6667 5.94L4.97292 12.265C0.277091 16.6925 0.277091 23.8837 4.97292 28.3112C9.66876 32.7387 17.2958 32.7387 21.9917 28.3112L32.3021 18.5625C33.0167 17.9162 33.0167 16.83 32.3021 16.1562C32.1328 15.9962 31.9316 15.8692 31.7101 15.7825C31.4887 15.6959 31.2512 15.6513 31.0115 15.6513C30.7717 15.6513 30.5343 15.6959 30.3128 15.7825C30.0913 15.8692 29.8902 15.9962 29.7208 16.1562L23.275 22.2337L22.2396 21.2575L31.7771 12.265C32.4917 11.5912 32.4917 10.505 31.7771 9.83125C31.0625 9.1575 29.8958 9.1575 29.1667 9.83125L20.6938 17.875L19.6875 16.8712L29.7063 7.3975C30.4208 6.72375 30.4208 5.6375 29.7063 4.96375C28.9917 4.29 27.8396 4.29 27.125 4.96375L17.0771 14.4375L16.0417 13.475L24.0625 5.94C24.7917 5.26625 24.7917 4.18 24.0625 3.50625C23.3333 2.8325 22.1958 2.8325 21.4813 3.50625L10.3688 13.9837C11.2389 15.042 11.67 16.363 11.5814 17.6994C11.4928 19.0358 10.8906 20.2959 9.88751 21.2437L8.85209 20.2675C9.67139 19.4941 10.1316 18.4456 10.1316 17.3525C10.1316 16.2594 9.67139 15.2109 8.85209 14.4375L8.34167 13.9562L14.2771 8.36C14.9917 7.68625 14.9917 6.6 14.2771 5.92625C13.5479 5.26625 12.3958 5.26625 11.6667 5.94Z" fill="#D84315"/>
</svg>
